<svg xmlns="http://www.w3.org/2000/svg" viewBox="0 0 42 42"><g data-name="Group 37031"><path fill="none" d="M0 0h42v42H0z"/><g data-name="Group 37029"><path fill="#90d1fa" d="M4.43 40.06H4.4a3.24 3.24 0 0 1-2.26-.94 3.24 3.24 0 0 1-.94-2.28V4.94a2.98 2.98 0 0 1 .88-2.12 2.98 2.98 0 0 1 2.12-.88h9.28c2.92 0 6.23 0 8.88 2.3l1.14.98a7.3 7.3 0 0 0 4.75 1.77h7.43a3.64 3.64 0 0 1 2.56 1.08 3.64 3.64 0 0 1 1.07 2.57v8.78l-12.57-6.4a4.04 4.04 0 0 0-1.82-.45 4.04 4.04 0 0 0-1.83.44L8.44 20.48a4.03 4.03 0 0 0-1.6 1.48 4.02 4.02 0 0 0-.6 2.1V38.2a1.83 1.83 0 0 1-.53 1.3 1.84 1.84 0 0 1-1.3.54zm28.7-.01H8.63a4.56 4.56 0 0 0 .4-1.84V24.09a1.27 1.27 0 0 1 .18-.67 1.27 1.27 0 0 1 .53-.46l14.62-7.46a1.28 1.28 0 0 1 .58-.14 1.28 1.28 0 0 1 .58.14l13.81 7.03v11.05a6.46 6.46 0 0 1-1.9 4.6 6.49 6.49 0 0 1-4.26 1.9z"/><path fill="#90d1fa" d="M35.56 40.05H8.64a4.57 4.57 0 0 0 .38-1.85V24.06a1.28 1.28 0 0 1 .2-.67 1.27 1.27 0 0 1 .5-.47l14.6-7.46a1.27 1.27 0 0 1 .57-.14 1.27 1.27 0 0 1 .58.14l14.63 7.46a1.28 1.28 0 0 1 .5.47 1.27 1.27 0 0 1 .2.66v10.74a5.22 5.22 0 0 1-1.54 3.72 5.22 5.22 0 0 1-3.7 1.54z"/><path fill="#f1f9fe" d="M20.75 26.97c0-.93.8-1.72 1.72-1.72.94 0 1.73.8 1.73 1.72 0 .94-.8 1.73-1.72 1.73-.94 0-1.73-.8-1.73-1.72v-.01zm4.74 0c-.01-.93.8-1.72 1.7-1.72h.04c.93 0 1.72.8 1.72 1.72 0 .94-.8 1.73-1.72 1.73h-.01c-.92 0-1.7-.8-1.7-1.72v-.01zm-4.62 4.75c0-.93.8-1.72 1.72-1.72.94 0 1.73.8 1.73 1.72 0 .94-.79 1.73-1.72 1.73-.94 0-1.73-.8-1.73-1.72v-.01zm4.74 0c0-.93.79-1.72 1.72-1.72h.01c.93 0 1.72.8 1.72 1.72 0 .94-.79 1.73-1.72 1.73-.94 0-1.73-.8-1.73-1.72v-.01z"/></g></g></svg>